<svg width="24" height="25" viewBox="0 0 24 25" fill="none" xmlns="http://www.w3.org/2000/svg">
<path d="M11.9194 23.8799C9.84943 23.8799 7.94949 23.3904 6.22949 22.4004C4.50949 21.4104 3.14943 20.0598 2.16943 18.3398C1.18943 16.6198 0.689453 14.7204 0.689453 12.6504C0.689453 10.5804 1.17943 8.67996 2.16943 6.95996C3.14943 5.23996 4.50949 3.88039 6.22949 2.90039C7.94949 1.92039 9.84943 1.41992 11.9194 1.41992C13.9894 1.41992 15.8896 1.91039 17.6096 2.90039C19.3296 3.89039 20.6894 5.23996 21.6694 6.95996C22.6494 8.67996 23.1494 10.5804 23.1494 12.6504C23.1494 14.9504 22.5794 16.9802 21.4294 18.7402H15.9895V15.4805C15.5395 16.5705 14.7895 17.4301 13.7395 18.0801C12.6895 18.7301 11.4994 19.0498 10.1694 19.0498C8.95943 19.0498 7.97949 18.7502 7.22949 18.1602C6.47949 17.5702 6.10962 16.7903 6.10962 15.8203C6.10962 14.6303 6.63945 13.7304 7.68945 13.1104C8.74945 12.4904 10.4696 12.1104 12.8696 11.9404C14.0196 11.8804 14.8095 11.7398 15.2495 11.5098C15.6895 11.2898 15.9094 10.9397 15.9094 10.4697C15.9094 9.82973 15.7494 9.2402 15.4194 8.7002C15.0894 8.1602 14.6296 7.72992 14.0396 7.41992C13.4496 7.10992 12.7595 6.95996 11.9795 6.95996C10.8295 6.95996 9.85958 7.29043 9.06958 7.94043C8.27958 8.60043 7.77959 9.50039 7.57959 10.6504H6.62939C6.74939 9.69039 7.05956 8.86016 7.54956 8.16016C8.03956 7.46016 8.67947 6.92957 9.45947 6.55957C10.2395 6.18957 11.1196 6.00977 12.0996 6.00977C13.6596 6.00977 14.9194 6.46035 15.8794 7.36035C16.8394 8.26035 17.3296 9.47023 17.3296 10.9902V17.7598H21.0195C21.8795 16.2198 22.3096 14.5204 22.3096 12.6504C22.3096 10.7204 21.8495 8.96012 20.9395 7.37012C20.0295 5.78012 18.7795 4.53012 17.1895 3.62012C15.5995 2.71012 13.8394 2.25 11.9194 2.25C9.98943 2.25 8.23942 2.71012 6.65942 3.62012C5.07942 4.53012 3.82942 5.78012 2.90942 7.37012C1.98942 8.96012 1.52954 10.7204 1.52954 12.6504C1.52954 14.5804 1.98942 16.3302 2.90942 17.9102C3.82942 19.4902 5.07942 20.7402 6.65942 21.6602C8.23942 22.5802 9.98943 23.04 11.9194 23.04C13.3294 23.04 14.6694 22.7898 15.9194 22.2998C17.1694 21.8098 18.2795 21.0997 19.2395 20.1797L19.8196 20.7305C18.7696 21.7305 17.5795 22.5098 16.2395 23.0498C14.8995 23.5998 13.4594 23.8799 11.9194 23.8799ZM10.5596 18.0898C11.5396 18.0898 12.4495 17.8602 13.2695 17.4102C14.0895 16.9602 14.7395 16.3501 15.2195 15.5801C15.6995 14.8101 15.9395 13.97 15.9395 13.04V11.9297C15.6295 12.1397 15.2195 12.3104 14.6895 12.4404C14.1695 12.5704 13.5095 12.6602 12.7095 12.7002C10.9495 12.8402 9.64958 13.1501 8.81958 13.6201C7.98958 14.0901 7.56958 14.7797 7.56958 15.6797C7.56958 16.4397 7.82961 17.0302 8.34961 17.4502C8.88961 17.8802 9.61957 18.0898 10.5596 18.0898Z" fill="white" stroke="white" stroke-miterlimit="10"/>
</svg>
