<svg width="44" height="58" viewBox="0 0 44 58" fill="none" xmlns="http://www.w3.org/2000/svg">
<path d="M36.59 38.42L34.24 38.63L24.28 28.67L38.26 14.68L39.45 15.88L43.08 7.69998L34.9 11.32L36.33 12.75L23.74 25.34V8.88998H25.8199L22.6 0.539978L19.38 8.88998H21V25.4L8.23999 12.64L9.55005 11.33L1.37 7.69998L5 15.88L6.31006 14.57L20.41 28.67L10.35 38.72L8.26001 38.37L0.839966 45.79L5.04004 46.11V49.98L12.46 42.57L12.28 40.66L21 31.94V45.45L19.1801 46.75V57.24L22.37 54.5L25.11 57.24V46.75L23.74 45.61V32L32.67 40.94L32.39 42.61L39.8101 50.03L40.13 45.84H44L36.59 38.42Z" fill="#F7CF2B"/>
</svg>
