<svg width="261" height="57" viewBox="0 0 261 57" fill="none" xmlns="http://www.w3.org/2000/svg">
<path d="M0.150391 1.10986V52.9899L30.0604 32.3999L45.0704 41.3999L52.6404 35.4899L80.7504 52.9899V1.10986H0.150391Z" fill="white"/>
<path d="M118.174 6.4358V41.3563C118.174 41.6635 118.02 41.8171 117.713 41.8171H112.695C112.354 41.8171 112.183 41.6635 112.183 41.3563V26.8658H106.244C105.424 26.8658 104.639 26.7122 103.888 26.405C103.171 26.0978 102.54 25.6711 101.994 25.1249C101.448 24.5788 101.021 23.9473 100.714 23.2304C100.406 22.5136 100.253 21.7455 100.253 20.9263V6.4358C100.253 6.12858 100.406 5.97497 100.714 5.97497H105.732C106.073 5.97497 106.244 6.12858 106.244 6.4358V20.4142C106.244 20.7556 106.397 20.9263 106.704 20.9263H112.183V6.4358C112.183 6.12858 112.354 5.97497 112.695 5.97497H117.713C118.02 5.97497 118.174 6.12858 118.174 6.4358ZM141.643 36.3384V41.3563C141.643 41.6635 141.473 41.8171 141.131 41.8171H124.183C123.876 41.8171 123.722 41.6635 123.722 41.3563V6.4358C123.722 6.12858 123.876 5.97497 124.183 5.97497H141.131C141.473 5.97497 141.643 6.12858 141.643 6.4358L140.21 11.6073C140.141 11.8463 139.988 11.9657 139.749 11.9657H129.662V20.9263H136.677C136.984 20.9263 137.138 21.0799 137.138 21.3871V26.405C137.138 26.7122 136.984 26.8658 136.677 26.8658H129.662V35.8264H141.131C141.473 35.8264 141.643 35.9971 141.643 36.3384ZM156.553 5.97497C157.372 5.97497 158.14 6.12858 158.857 6.4358C159.608 6.74301 160.256 7.16971 160.803 7.71587C161.349 8.26204 161.775 8.91061 162.083 9.66159C162.39 10.3784 162.543 11.1465 162.543 11.9657V20.9263C162.543 21.7455 162.373 22.5306 162.031 23.2816C161.724 23.9985 161.298 24.63 160.751 25.1761C160.239 25.6882 159.608 26.0978 158.857 26.405C158.14 26.7122 157.372 26.8658 156.553 26.8658H150.613V41.3563C150.613 41.6635 150.442 41.8171 150.101 41.8171H145.083C144.776 41.8171 144.622 41.6635 144.622 41.3563V6.4358C144.622 6.12858 144.776 5.97497 145.083 5.97497H156.553ZM156.092 20.9263C156.399 20.9263 156.553 20.7556 156.553 20.4142V12.4266C156.553 12.1193 156.399 11.9657 156.092 11.9657H150.613V20.9263H156.092ZM183.374 41.2027C183.408 41.3734 183.374 41.527 183.272 41.6635C183.204 41.7659 183.084 41.8171 182.913 41.8171H177.896C177.725 41.8171 177.571 41.6977 177.435 41.4587L173.083 26.8658H171.598V41.3563C171.598 41.6635 171.427 41.8171 171.086 41.8171H166.068C165.76 41.8171 165.607 41.6635 165.607 41.3563V6.4358C165.607 6.12858 165.76 5.97497 166.068 5.97497H171.086C171.427 5.97497 171.598 6.12858 171.598 6.4358V20.9263H173.083L177.435 6.33339C177.571 6.09444 177.725 5.97497 177.896 5.97497H182.913C183.084 5.97497 183.204 6.04324 183.272 6.17978C183.374 6.28219 183.408 6.41873 183.374 6.58941L178.152 23.8961L183.374 41.2027ZM205.847 36.3384V41.3563C205.847 41.6635 205.677 41.8171 205.335 41.8171H188.387C188.08 41.8171 187.926 41.6635 187.926 41.3563V6.4358C187.926 6.12858 188.08 5.97497 188.387 5.97497H205.335C205.677 5.97497 205.847 6.12858 205.847 6.4358L204.414 11.6073C204.345 11.8463 204.192 11.9657 203.953 11.9657H193.866V20.9263H200.881C201.188 20.9263 201.341 21.0799 201.341 21.3871V26.405C201.341 26.7122 201.188 26.8658 200.881 26.8658H193.866V35.8264H205.335C205.677 35.8264 205.847 35.9971 205.847 36.3384ZM220.257 14.5771V12.4266C220.257 12.1193 220.103 11.9657 219.796 11.9657H214.778C214.471 11.9657 214.317 12.1193 214.317 12.4266V35.3655C214.317 35.6728 214.471 35.8264 214.778 35.8264H219.796C220.103 35.8264 220.257 35.6728 220.257 35.3655V31.8325C220.257 31.5253 220.427 31.3717 220.769 31.3717H225.786C226.094 31.3717 226.247 31.5253 226.247 31.8325V35.8264C226.247 36.6456 226.094 37.4307 225.786 38.1817C225.479 38.8986 225.053 39.5301 224.506 40.0762C223.96 40.6224 223.312 41.0491 222.561 41.3563C221.844 41.6635 221.076 41.8171 220.257 41.8171H214.317C213.498 41.8171 212.713 41.6635 211.962 41.3563C211.245 41.0491 210.613 40.6224 210.067 40.0762C209.521 39.5301 209.094 38.8986 208.787 38.1817C208.48 37.4307 208.326 36.6456 208.326 35.8264V11.9657C208.326 11.1465 208.48 10.3784 208.787 9.66159C209.094 8.91061 209.521 8.26204 210.067 7.71587C210.613 7.16971 211.245 6.74301 211.962 6.4358C212.713 6.12858 213.498 5.97497 214.317 5.97497H220.257C221.076 5.97497 221.844 6.12858 222.561 6.4358C223.312 6.74301 223.96 7.16971 224.506 7.71587C225.053 8.26204 225.479 8.91061 225.786 9.66159C226.094 10.3784 226.247 11.1465 226.247 11.9657V15.9596C226.247 16.2668 226.094 16.4204 225.786 16.4204L220.615 15.0379C220.376 14.9696 220.257 14.816 220.257 14.5771ZM242.708 41.8171H231.238C230.931 41.8171 230.778 41.6635 230.778 41.3563V6.4358C230.778 6.12858 230.931 5.97497 231.238 5.97497H236.256C236.598 5.97497 236.768 6.12858 236.768 6.4358V20.9263H242.708C243.527 20.9263 244.295 21.0799 245.012 21.3871C245.763 21.6943 246.412 22.121 246.958 22.6672C247.504 23.2133 247.931 23.8449 248.238 24.5617C248.545 25.2785 248.699 26.0466 248.699 26.8658V35.8264C248.699 36.6456 248.545 37.4307 248.238 38.1817C247.931 38.8986 247.504 39.5301 246.958 40.0762C246.412 40.6224 245.763 41.0491 245.012 41.3563C244.295 41.6635 243.527 41.8171 242.708 41.8171ZM257.659 6.4358V41.3563C257.659 41.6635 257.506 41.8171 257.198 41.8171H252.18C251.839 41.8171 251.668 41.6635 251.668 41.3563V6.4358C251.668 6.12858 251.839 5.97497 252.18 5.97497H257.198C257.506 5.97497 257.659 6.12858 257.659 6.4358ZM242.247 26.8658H236.768V35.8264H242.247C242.554 35.8264 242.708 35.6728 242.708 35.3655V27.3779C242.708 27.0365 242.554 26.8658 242.247 26.8658Z" fill="white"/>
<path d="M101.251 9.34277H100.641V4.21417H101.251V6.56738H106.739V4.21417H107.349V9.34277H106.739V7.09901H101.251V9.34277ZM108.795 9.34277H108.131L110.367 4.22198H112.524L114.838 9.34277H114.174L113.439 7.71663H109.507L108.795 9.34277ZM113.197 7.18501L112.102 4.75361H110.804L109.741 7.18501H113.197ZM115.62 9.34277V4.21417H116.23V8.81115H120.937V4.21417H121.546V8.81115H122.328V10.3591H121.718V9.34277H115.62ZM129.208 9.34277V4.93342L123.72 9.34277H123.11V4.21417H123.72V8.56879L129.208 4.21417H129.818V9.34277H129.208ZM135.916 8.27953C136.437 7.88341 136.698 7.38306 136.698 6.77847C136.698 6.17388 136.437 5.67353 135.916 5.27741C135.395 4.8813 134.741 4.68325 133.954 4.68325C133.167 4.68325 132.513 4.8813 131.991 5.27741C131.47 5.67353 131.21 6.17388 131.21 6.77847C131.21 7.38306 131.47 7.88341 131.991 8.27953C132.513 8.67564 133.167 8.87369 133.954 8.87369C134.741 8.87369 135.395 8.67564 135.916 8.27953ZM136.362 4.82397C136.992 5.30347 137.308 5.95497 137.308 6.77847C137.308 7.60197 136.992 8.25347 136.362 8.73297C135.736 9.21247 134.933 9.45223 133.954 9.45223C132.974 9.45223 132.169 9.21247 131.538 8.73297C130.912 8.25347 130.6 7.60197 130.6 6.77847C130.6 5.95497 130.912 5.30347 131.538 4.82397C132.169 4.34447 132.974 4.10471 133.954 4.10471C134.933 4.10471 135.736 4.34447 136.362 4.82397ZM138.699 9.34277H138.089V4.21417H138.699V6.56738H144.187V4.21417H144.797V9.34277H144.187V7.09901H138.699V9.34277ZM146.244 9.34277H145.579L147.815 4.22198H149.973L152.287 9.34277H151.622L150.888 7.71663H146.955L146.244 9.34277ZM150.645 7.18501L149.551 4.75361H148.253L147.19 7.18501H150.645ZM154.859 4.74579L153.702 9.34277H153.069L154.351 4.21417H159.777V9.34277H159.167V4.74579H154.859ZM165.328 6.46575C165.87 6.46575 166.328 6.60908 166.703 6.89574C167.079 7.1824 167.266 7.50815 167.266 7.87299C167.266 8.30037 167.084 8.65218 166.719 8.92842C166.359 9.20466 165.896 9.34277 165.328 9.34277H160.559V4.21417H161.168V6.46575H165.328ZM161.168 6.99737V8.81115H165.328C165.724 8.81115 166.049 8.72255 166.305 8.54534C166.56 8.36813 166.688 8.14401 166.688 7.87299C166.688 7.62281 166.558 7.41433 166.297 7.24755C166.042 7.08077 165.718 6.99737 165.328 6.99737H161.168ZM168.658 9.34277H168.048V4.21417H168.658V6.56738H174.146V4.21417H174.756V9.34277H174.146V7.09901H168.658V9.34277ZM176.202 9.34277H175.538L177.774 4.22198H179.932L182.246 9.34277H181.581L180.846 7.71663H176.914L176.202 9.34277ZM180.604 7.18501L179.509 4.75361H178.212L177.148 7.18501H180.604ZM184.967 4.21417H189.736V9.34277H189.126V7.45864H186.366L184.247 9.34277H183.333L185.561 7.45864H184.967C184.362 7.45864 183.888 7.31531 183.544 7.02865C183.2 6.74199 183.028 6.37454 183.028 5.92631C183.028 5.42596 183.2 5.01681 183.544 4.69888C183.893 4.37574 184.367 4.21417 184.967 4.21417ZM189.126 4.74579H184.967C184.586 4.74579 184.263 4.86045 183.997 5.08978C183.736 5.3139 183.606 5.59274 183.606 5.92631C183.606 6.21297 183.734 6.45272 183.989 6.64556C184.25 6.8332 184.576 6.92701 184.967 6.92701H189.126V4.74579ZM198.007 4.21417H198.617V6.58302H200.822L203.151 4.21417H203.917L201.588 6.58302H204.715V9.34277H204.105V7.11464H198.617V9.34277H198.007V4.21417ZM211.462 4.21417H212.205L208.913 9.34277H205.497V8.81115H208.46L209.203 7.77917H207.811L205.497 4.21417H206.239L208.233 7.24755H209.531L211.462 4.21417ZM214.777 4.74579L213.62 9.34277H212.986L214.269 4.21417H219.694V9.34277H219.085V4.74579H214.777ZM225.245 6.46575C225.787 6.46575 226.246 6.60908 226.621 6.89574C226.996 7.1824 227.184 7.50815 227.184 7.87299C227.184 8.30037 227.002 8.65218 226.637 8.92842C226.277 9.20466 225.813 9.34277 225.245 9.34277H220.476V4.21417H221.086V6.46575H225.245ZM221.086 6.99737V8.81115H225.245C225.641 8.81115 225.967 8.72255 226.222 8.54534C226.478 8.36813 226.605 8.14401 226.605 7.87299C226.605 7.62281 226.475 7.41433 226.215 7.24755C225.959 7.08077 225.636 6.99737 225.245 6.99737H221.086ZM234.674 4.21417V4.74579H231.625V9.34277H231.015V4.74579H227.966V4.21417H234.674ZM241.421 4.21417H242.163L238.872 9.34277H235.456V8.81115H238.419L239.161 7.77917H237.77L235.456 4.21417H236.198L238.192 7.24755H239.49L241.421 4.21417ZM247.714 4.21417C248.308 4.21417 248.78 4.37574 249.129 4.69888C249.479 5.01681 249.653 5.42596 249.653 5.92631C249.653 6.37454 249.481 6.74199 249.137 7.02865C248.793 7.31531 248.319 7.45864 247.714 7.45864H243.555V9.34277H242.945V4.21417H247.714ZM243.555 4.74579V6.92701H247.714C248.105 6.92701 248.428 6.8332 248.684 6.64556C248.944 6.45272 249.075 6.21297 249.075 5.92631C249.075 5.58753 248.944 5.30608 248.684 5.08196C248.428 4.85785 248.105 4.74579 247.714 4.74579H243.555ZM251.1 9.34277H250.435L252.671 4.22198H254.829L257.143 9.34277H256.478L255.743 7.71663H251.811L251.1 9.34277ZM255.501 7.18501L254.407 4.75361H253.109L252.046 7.18501H255.501Z" fill="white"/>
</svg>
