<svg width="27" height="22" viewBox="0 0 27 22" fill="none" xmlns="http://www.w3.org/2000/svg">
<path d="M7.25909 12.9101L8.88898 11.9404L21.0191 4.21965C21.1491 4.13965 21.289 4.06946 21.439 4.01946C21.599 3.96946 21.749 4.12996 21.689 4.28996L21.669 4.33C21.599 4.52 21.4792 4.69024 21.3292 4.82024L12.2491 12.9003L10.9891 14.3896L10.3292 16.12L10.0391 17.7499L9.82916 20.2001C9.80916 20.4701 10.0792 20.6702 10.3292 20.5702C10.5592 20.4802 10.769 20.3504 10.949 20.1904L11.949 19.3495L13.649 17.6396L14.159 17.2099C14.239 17.1399 14.359 17.1399 14.449 17.2099L19.629 21.37L19.649 21.4697C20.659 22.0097 21.899 21.4295 22.129 20.3095L26.0692 1.3095C26.2392 0.479495 25.419 -0.200466 24.629 0.0995341L1.24908 9.13957C0.419084 9.45957 0.449123 10.6396 1.28912 10.9296L7.25909 12.9101Z" fill="white"/>
</svg>
