<svg width="39" height="23" viewBox="0 0 39 23" fill="none" xmlns="http://www.w3.org/2000/svg">
<path d="M0.55949 1.94043L0.57951 2C1.17951 4.06 1.98942 6.05043 2.98942 7.94043C3.29942 8.53043 3.62939 9.14977 3.95939 9.75977C5.22939 12.1598 6.66946 14.4604 8.27946 16.6504L8.35954 16.7598C9.12954 17.7998 10.0295 18.6902 11.0695 19.4102C11.0895 19.4202 11.1093 19.4402 11.1293 19.4502C12.9193 20.7002 14.9195 21.63 17.0195 22.21C17.3095 22.29 17.5895 22.3704 17.8495 22.4404C18.8695 22.7204 19.9194 22.8604 20.9694 22.8604C21.8494 22.8604 22.5695 22.1398 22.5695 21.2598V16.9502C22.5695 16.5702 22.8394 16.2397 23.2194 16.1797C23.9594 16.0497 24.7295 16.2896 25.2695 16.8096L30.6095 21.9102C31.2495 22.5302 32.1094 22.8701 32.9994 22.8701H36.8095C37.6895 22.8701 38.2994 21.9802 37.9694 21.1602L37.9594 21.1396C37.3394 19.5896 36.4395 18.1604 35.2895 16.9404L33.6694 15.2197L31.6195 13.1699C31.1595 12.7099 31.1195 11.9905 31.5295 11.4805C32.4395 10.3505 33.2895 9.17043 34.0595 7.94043L35.7594 5.23047L37.3793 2.12988C37.7493 1.42988 37.2394 0.589844 36.4394 0.589844L32.0695 0.610352C31.2695 0.610352 30.5294 1.07004 30.1794 1.79004L29.2995 3.58008C28.8895 4.42008 28.4294 5.24027 27.9294 6.03027L26.5295 8.36035C25.9195 9.37035 25.0795 10.2198 24.0795 10.8398L23.6293 11.1201C23.1993 11.3901 22.6393 11.0803 22.6393 10.5703V1.7998C22.6393 1.1298 22.0994 0.589844 21.4294 0.589844H14.6894C13.9994 0.589844 13.5693 1.34043 13.9093 1.94043L14.4394 2.78027C15.0594 3.78027 15.3993 4.92961 15.3993 6.09961V12.4902C15.3993 12.8002 15.0895 13.0204 14.7995 12.9004C13.9995 12.5904 13.2793 12.1195 12.6593 11.5195L10.9494 9.01953L9.18937 5.73047L7.52946 1.5C7.31946 0.96 6.78938 0.599609 6.19938 0.599609C4.99938 0.599609 2.93949 0.599609 1.55949 0.599609C0.86949 0.589609 0.35949 1.27043 0.55949 1.94043Z" fill="white"/>
</svg>
