<svg width="23" height="23" viewBox="0 0 23 23" fill="none" xmlns="http://www.w3.org/2000/svg">
<path d="M11.8497 0.73999C5.81969 0.73999 0.929688 5.62999 0.929688 11.66C0.929688 14.01 1.66969 16.18 2.92969 17.96L1.78969 21.95L5.91969 20.83C7.62969 21.94 9.65969 22.58 11.8497 22.58C17.8797 22.58 22.7697 17.69 22.7697 11.66C22.7697 5.62999 17.8797 0.73999 11.8497 0.73999ZM17.9997 15.03L17.9797 15.11C17.8497 15.73 17.4997 16.27 16.9797 16.64L16.7297 16.82C16.4197 17.04 16.0597 17.18 15.6897 17.24L15.5597 17.26C14.9997 17.34 14.4297 17.29 13.8897 17.11L13.4497 16.96C12.7097 16.72 11.9897 16.4 11.3197 16L11.2397 15.96C10.4397 15.49 9.69969 14.93 9.03969 14.28L8.98969 14.23C8.29969 13.56 7.67969 12.82 7.13969 12.02L6.67969 11.34C6.37969 10.89 6.14969 10.39 6.01969 9.86999C5.86969 9.25999 5.87969 8.60999 6.04969 7.99999L6.06969 7.90999C6.23969 7.31999 6.56969 6.77999 7.03969 6.37999L7.06969 6.34999C7.31969 6.12999 7.64969 6.00999 7.97969 6.00999H8.31969C8.54969 6.00999 8.76969 6.14999 8.85969 6.35999L9.93969 8.73999C10.0697 9.01999 10.0097 9.33999 9.80969 9.55999L9.16969 10.26C8.97969 10.47 8.95969 10.79 9.10969 11.02L9.62969 11.79C9.87969 12.16 10.1797 12.5 10.5097 12.8L11.0697 13.3C11.3897 13.58 11.7297 13.83 12.0997 14.03L12.9097 14.48C13.1797 14.63 13.5097 14.56 13.6997 14.32L14.5297 13.24C14.7097 13 15.0397 12.93 15.2997 13.06L17.6797 14.25C17.8897 14.32 17.9997 14.5 17.9997 14.69V15.03Z" fill="white"/>
</svg>
